<svg xmlns="http://www.w3.org/2000/svg" width="171.995" height="32.464" viewBox="0 0 171.995 32.464">
  <g id="makane" transform="translate(-39.13 -31.66)">
    <path d="M39.13,31.67h0a17.034,17.034,0,0,1,14.493,8.086l2.754,4.475,2.753-4.474A17.018,17.018,0,0,1,73.619,31.67h0V64.122H64.677V45.481l-8.3,12.7h-.184L47.94,45.567V64.122H39.13Z" transform="translate(0 -0.004)" fill="white"/>
    <path d="M103.34,62.131v-.086c0-5.007,3.94-7.605,9.831-7.605a19.788,19.788,0,0,1,6.034.941v-.4c0-2.506-1.623-3.935-5.007-3.935a18.245,18.245,0,0,0-6.883,1.342l-1.807-5.994a25.983,25.983,0,0,1,10.152-1.876c4.5,0,7.56,1.027,9.55,2.948,1.9,1.79,2.69,4.3,2.69,7.692V69.6h-5.678a3.04,3.04,0,0,1-3.04-3.04h0a9.63,9.63,0,0,1-7.37,3.04C107,69.6,103.34,66.961,103.34,62.131Zm15.951-1.853V59.132a9.469,9.469,0,0,0-3.441-.625c-2.547,0-4.015,1.2-4.015,2.994v.086c0,1.658,1.3,2.638,3.109,2.638C117.484,64.294,119.291,62.716,119.291,60.279Z" transform="translate(-27.381 -5.481)" fill="white"/>
    <path d="M151.05,31.66h0a8.81,8.81,0,0,1,8.81,8.8v6.969l6.82-8.391h9.963L167.93,49.1l8.948,15.022h-9.693l-5.053-8.529-2.294,2.638v5.891H151.05Z" transform="translate(-47.727)" fill="white"/>
    <path d="M196.08,62.131v-.086c0-5.007,3.94-7.605,9.831-7.605a19.788,19.788,0,0,1,6.022.941v-.4c0-2.506-1.617-3.935-5.007-3.935a18.245,18.245,0,0,0-6.883,1.342l-1.83-5.994a25.982,25.982,0,0,1,10.152-1.876c4.5,0,7.56,1.027,9.55,2.948,1.9,1.79,2.69,4.3,2.69,7.692V69.6h-5.678a3.04,3.04,0,0,1-3.04-3.04h0a9.63,9.63,0,0,1-7.37,3.04C199.745,69.6,196.08,66.961,196.08,62.131Zm15.951-1.853V59.132a9.47,9.47,0,0,0-3.441-.625c-2.547,0-4.015,1.2-4.015,2.994v.086c0,1.658,1.3,2.638,3.109,2.638C210.218,64.294,212.031,62.716,212.031,60.279Z" transform="translate(-66.929 -5.481)" fill="white"/>
    <path d="M243.79,44.52h8.81v4.015a9.369,9.369,0,0,1,7.514-4.015c5.328,0,8.529,3.441,8.529,9.028v16.06h-8.81v-13.3c0-2.679-1.434-4.13-3.522-4.13s-3.711,1.451-3.711,4.13V69.6h-8.81Z" transform="translate(-87.274 -5.484)" fill="white"/>
    <path d="M293,31.67h18.457a7.646,7.646,0,0,1,7.669,7.646H301.919v4.915h8.489a7.089,7.089,0,0,1,7.089,7.1H301.925v5.162h9.785a7.651,7.651,0,0,1,7.674,7.634H293Z" transform="translate(-108.259 -0.004)" fill="white"/>
  </g>
</svg>
